<svg width="24" height="24" viewBox="0 0 24 24" fill="none" xmlns="http://www.w3.org/2000/svg">
<path d="M18.8571 15C17.646 15 16.5328 15.3665 15.6541 15.9795L10.1638 12.9769C10.3264 12.3334 10.3264 11.6666 10.1638 11.023L15.6541 8.0205C16.5328 8.63348 17.646 9 18.8571 9C21.6974 9 24 6.98527 24 4.5C24 2.01473 21.6974 0 18.8571 0C16.0168 0 13.7143 2.01473 13.7143 4.5C13.7143 4.83553 13.7566 5.16234 13.8362 5.47692L8.34589 8.47945C7.46716 7.86652 6.354 7.5 5.14286 7.5C2.30255 7.5 0 9.51473 0 12C0 14.4853 2.30255 16.5 5.14286 16.5C6.354 16.5 7.46716 16.1335 8.34589 15.5205L13.8362 18.5231C13.7551 18.8439 13.7142 19.1714 13.7143 19.5C13.7143 21.9853 16.0168 24 18.8571 24C21.6974 24 24 21.9853 24 19.5C24 17.0147 21.6974 15 18.8571 15Z" fill="#9C3E00"/>
</svg>
